<svg width="65" height="65" viewBox="0 0 65 65" fill="none" xmlns="http://www.w3.org/2000/svg">
<circle cx="32.5" cy="32.5" r="30" stroke="#E6E6E6" stroke-width="5"/>
<path d="M35.4062 21.1875C35.4062 19.9775 34.4287 19 33.2188 19C32.0088 19 31.0312 19.9775 31.0312 21.1875V31.0312H21.1875C19.9775 31.0312 19 32.0088 19 33.2188C19 34.4287 19.9775 35.4062 21.1875 35.4062H31.0312V45.25C31.0312 46.46 32.0088 47.4375 33.2188 47.4375C34.4287 47.4375 35.4062 46.46 35.4062 45.25V35.4062H45.25C46.46 35.4062 47.4375 34.4287 47.4375 33.2188C47.4375 32.0088 46.46 31.0312 45.25 31.0312H35.4062V21.1875Z" fill="#979797"/>
</svg>
