<svg width="88" height="88" viewBox="0 0 88 88" fill="none" xmlns="http://www.w3.org/2000/svg">
<g filter="url(#filter0_d_4_10)">
<circle cx="44" cy="40" r="40" fill="white"/>
</g>
<g filter="url(#filter1_d_4_10)">
<path d="M43.5 40.0562C49.0234 40.0562 53.5 35.567 53.5 30.0281C53.5 24.4891 49.0234 20 43.5 20C37.9766 20 33.5 24.4891 33.5 30.0281C33.5 35.567 37.9766 40.0562 43.5 40.0562ZM39.9297 43.8167C32.2344 43.8167 26 50.0686 26 57.7855C26 59.0704 27.0391 60.1124 28.3203 60.1124H58.6797C59.9609 60.1124 61 59.0704 61 57.7855C61 50.0686 54.7656 43.8167 47.0703 43.8167H39.9297Z" fill="#9DB4F1"/>
</g>
<defs>
<filter id="filter0_d_4_10" x="0" y="0" width="88" height="88" filterUnits="userSpaceOnUse" color-interpolation-filters="sRGB">
<feFlood flood-opacity="0" result="BackgroundImageFix"/>
<feColorMatrix in="SourceAlpha" type="matrix" values="0 0 0 0 0 0 0 0 0 0 0 0 0 0 0 0 0 0 127 0" result="hardAlpha"/>
<feOffset dy="4"/>
<feGaussianBlur stdDeviation="2"/>
<feComposite in2="hardAlpha" operator="out"/>
<feColorMatrix type="matrix" values="0 0 0 0 0 0 0 0 0 0 0 0 0 0 0 0 0 0 0.1 0"/>
<feBlend mode="normal" in2="BackgroundImageFix" result="effect1_dropShadow_4_10"/>
<feBlend mode="normal" in="SourceGraphic" in2="effect1_dropShadow_4_10" result="shape"/>
</filter>
<filter id="filter1_d_4_10" x="22" y="20" width="43" height="48.1124" filterUnits="userSpaceOnUse" color-interpolation-filters="sRGB">
<feFlood flood-opacity="0" result="BackgroundImageFix"/>
<feColorMatrix in="SourceAlpha" type="matrix" values="0 0 0 0 0 0 0 0 0 0 0 0 0 0 0 0 0 0 127 0" result="hardAlpha"/>
<feOffset dy="4"/>
<feGaussianBlur stdDeviation="2"/>
<feComposite in2="hardAlpha" operator="out"/>
<feColorMatrix type="matrix" values="0 0 0 0 0.383958 0 0 0 0 0.54245 0 0 0 0 0.95 0 0 0 0.25 0"/>
<feBlend mode="normal" in2="BackgroundImageFix" result="effect1_dropShadow_4_10"/>
<feBlend mode="normal" in="SourceGraphic" in2="effect1_dropShadow_4_10" result="shape"/>
</filter>
</defs>
</svg>
